<svg width="512" height="512" xmlns="http://www.w3.org/2000/svg" xmlns:xlink="http://www.w3.org/1999/xlink">
 <g>
  <title>background</title>
  <rect fill="none" id="canvas_background" height="402" width="582" y="-1" x="-1"/>
 </g>
 <g>
  <title>Layer 1</title>
  <defs>
   <path id="SVGID_27_" d="m-83.147,550.823c0,120.32 97.863,218.18 218.182,218.18c120.301,0 218.18,-97.859 218.18,-218.18c0,-120.303 -97.879,-218.163 -218.18,-218.163c-120.318,0 -218.182,97.861 -218.182,218.163z"/>
   <radialGradient r="239.9692" id="SVGID_5_" gradientUnits="userSpaceOnUse" cy="483.4905" cx="136.0657">
    <stop stop-color="#FFFFFF" offset="0.2808"/>
    <stop stop-color="#FFFFFF" stop-opacity="0" offset="0.7833"/>
   </radialGradient>
  </defs>
  <clipPath id="SVGID_4_">
   <use id="svg_5" xlink:href="#SVGID_27_"/>
  </clipPath>
  <circle id="svg_8" r="170.018997" fill="#ED9B24" cy="264.631046" cx="247.137849"/>
  <circle id="svg_9" r="164.595001" fill="#005397" cy="264.631046" cx="247.137849"/>
  <path id="svg_10" fill="#ED9B24" d="m129.249849,264.631046c0,-65.104 52.784,-117.886 117.888,-117.886c65.106,0 117.888,52.781 117.888,117.886c0,65.109 -52.781,117.888 -117.888,117.888c-65.104,-0.001 -117.888,-52.779 -117.888,-117.888z"/>
  <circle id="svg_11" r="114.393997" fill="#F1EEED" cy="264.631046" cx="247.137849"/>
  <circle id="svg_12" r="15.879" fill="#F1EEED" cy="229.088046" cx="111.465849"/>
  <path id="svg_13" fill="#F1EEED" d="m109.141849,283.903046c2.292,0 4.053,0.736 5.075,0.736c1.024,0 7.021,-0.736 7.021,3.848c0,0.39 -0.145,1.371 -0.145,1.371s0.511,-0.329 2.171,-0.329c1.657,0 4.275,1.66 4.275,7.226c0,1.123 1.27,2.639 1.27,5.522c0,3.297 -2.312,3.93 -3.684,3.93c0,0 1.063,1.128 1.063,2.682c0,1.556 -1.492,4.053 -5.768,5.565c-1.02,0.362 -4.422,3.173 -5.813,3.173c-2.965,0 -4.03,-1.883 -4.03,-2.621c0,0 -1.002,2.074 -3.397,2.109c-2.823,0.041 -5.176,-3.643 -6.016,-4.194c-0.84,-0.554 -4.85,-3.276 -4.85,-5.689c0,-1.986 1.556,-3.297 1.556,-3.297s-3.393,-0.597 -3.152,-4.048c0.185,-2.641 1.966,-4.852 2.313,-5.914c0.349,-1.068 1.371,-6.346 5.196,-6.346c1.229,0 2.231,0.921 2.231,0.921c-0.001,-0.78 0.287,-4.645 4.684,-4.645z"/>
  <path id="svg_14" fill="#ED3543" d="m110.912849,294.787046c0.951,-2.242 1.655,-3.843 1.71,-3.843s0.493,1.712 1.07,4.105c0.488,0.167 0.954,0.385 1.374,0.663c1.351,-1.568 4.513,-5.432 4.513,-7.124c0,-2.763 -4.42,-2.15 -5.586,-2.15c-1.169,0 -4.053,-0.612 -4.933,-0.612c-2.231,0 -2.783,1.188 -2.783,2.436c0,1.182 2.168,4.981 3.292,6.874c0.428,-0.167 0.878,-0.284 1.343,-0.349z"/>
  <path id="svg_15" fill="#ED3543" d="m126.001849,298.334046c-0.334,-1.118 -0.577,-4.059 -0.833,-4.9c-0.645,-2.136 -1.94,-2.322 -3.134,-1.964c-1.169,0.352 -4.341,3.722 -5.766,5.283c0.44,0.498 0.797,1.064 1.06,1.688c2.52,0.22 4.351,0.392 4.379,0.422c0.027,0.03 -1.65,1.098 -3.944,2.525c-0.03,0.25 -0.066,0.501 -0.122,0.741c2.009,0.88 6.355,2.641 7.914,2.176c2.647,-0.8 0.785,-4.856 0.446,-5.971z"/>
  <path id="svg_16" fill="#ED3543" d="m123.800849,307.648046c-0.703,-0.996 -4.918,-2.947 -6.848,-3.805c-0.261,0.44 -0.58,0.84 -0.938,1.196c0.602,2.694 1.022,4.714 0.966,4.77c-0.056,0.061 -1.718,-1.306 -3.896,-3.15c-0.253,0.059 -0.511,0.102 -0.774,0.124c-0.2,2.15 -0.516,6.922 0.435,8.268c1.594,2.257 4.85,-0.791 5.801,-1.465c0.954,-0.675 3.666,-1.836 4.384,-2.342c1.824,-1.283 1.588,-2.573 0.87,-3.596z"/>
  <path id="svg_17" fill="#ED3543" d="m105.175849,308.848046c0,-0.116 0.739,-1.985 1.751,-4.468c-0.324,-0.433 -0.597,-0.905 -0.797,-1.416c-2.176,0.465 -6.636,1.553 -7.618,2.828c-1.688,2.186 2.188,4.401 3.112,5.11c0.923,0.713 2.836,2.96 3.532,3.496c1.766,1.361 2.93,0.759 3.691,-0.228c0.729,-0.946 1.333,-5.343 1.594,-7.509c-0.301,-0.065 -0.589,-0.164 -0.873,-0.273c-2.5,1.499 -4.392,2.587 -4.392,2.46z"/>
  <path id="svg_18" fill="#ED3543" d="m105.714849,300.699046c0.002,-0.124 0.018,-0.243 0.025,-0.364c-1.92,-1.68 -3.307,-2.922 -3.307,-2.988c0,-0.061 1.756,0.043 4.205,0.223c0.395,-0.627 0.896,-1.181 1.485,-1.629c-1.093,-1.826 -3.686,-5.93 -5.265,-6.461c-2.616,-0.884 -3.446,3.501 -3.817,4.604c-0.375,1.108 -1.875,3.648 -2.158,4.479c-0.711,2.115 0.238,3.021 1.422,3.418c1.098,0.369 5.237,-0.431 7.425,-0.898c-0.008,-0.128 -0.018,-0.255 -0.015,-0.384z"/>
  <circle id="svg_19" r="3.634" fill="#ED3543" cy="300.768046" cx="111.756849"/>
  <path id="svg_20" fill="#F1EEED" d="m387.065849,283.903046c-2.292,0 -4.053,0.736 -5.075,0.736c-1.024,0 -7.021,-0.736 -7.021,3.848c0,0.39 0.145,1.371 0.145,1.371s-0.511,-0.329 -2.171,-0.329c-1.656,0 -4.275,1.66 -4.275,7.226c0,1.123 -1.27,2.639 -1.27,5.522c0,3.297 2.313,3.93 3.684,3.93c0,0 -1.063,1.128 -1.063,2.682c0,1.556 1.492,4.053 5.768,5.565c1.02,0.362 4.423,3.173 5.813,3.173c2.966,0 4.033,-1.883 4.033,-2.621c0,0 1.002,2.074 3.395,2.109c2.824,0.041 5.177,-3.643 6.017,-4.194c0.84,-0.554 4.85,-3.276 4.85,-5.689c0,-1.986 -1.556,-3.297 -1.556,-3.297s3.39,-0.597 3.152,-4.048c-0.185,-2.641 -1.963,-4.852 -2.313,-5.914c-0.349,-1.068 -1.371,-6.346 -5.196,-6.346c-1.229,0 -2.231,0.921 -2.231,0.921c0,-0.78 -0.288,-4.645 -4.686,-4.645z"/>
  <path id="svg_21" fill="#ED3543" d="m385.295849,294.787046c-0.951,-2.242 -1.655,-3.843 -1.71,-3.843c-0.056,0 -0.494,1.712 -1.07,4.105c-0.488,0.167 -0.954,0.385 -1.374,0.663c-1.351,-1.568 -4.514,-5.432 -4.514,-7.124c0,-2.763 4.423,-2.15 5.586,-2.15c1.169,0 4.054,-0.612 4.934,-0.612c2.231,0 2.783,1.188 2.783,2.436c0,1.182 -2.171,4.981 -3.294,6.874c-0.425,-0.167 -0.876,-0.284 -1.341,-0.349z"/>
  <path id="svg_22" fill="#ED3543" d="m370.204849,298.334046c0.336,-1.118 0.579,-4.059 0.832,-4.9c0.646,-2.136 1.94,-2.322 3.137,-1.964c1.169,0.352 4.342,3.722 5.766,5.283c-0.442,0.498 -0.797,1.064 -1.06,1.688c-2.52,0.22 -4.352,0.392 -4.379,0.422c-0.028,0.03 1.649,1.098 3.943,2.525c0.028,0.25 0.066,0.501 0.122,0.741c-2.009,0.88 -6.355,2.641 -7.914,2.176c-2.645,-0.8 -0.784,-4.856 -0.447,-5.971z"/>
  <path id="svg_23" fill="#ED3543" d="m372.405849,307.648046c0.705,-0.996 4.92,-2.947 6.851,-3.805c0.261,0.44 0.579,0.84 0.938,1.196c-0.602,2.694 -1.024,4.714 -0.967,4.77c0.056,0.061 1.719,-1.306 3.896,-3.15c0.253,0.059 0.511,0.102 0.776,0.124c0.2,2.15 0.514,6.922 -0.438,8.268c-1.594,2.257 -4.85,-0.791 -5.804,-1.465c-0.953,-0.675 -3.663,-1.836 -4.382,-2.342c-1.824,-1.283 -1.587,-2.573 -0.87,-3.596z"/>
  <path id="svg_24" fill="#ED3543" d="m391.032849,308.848046c0,-0.116 -0.738,-1.985 -1.75,-4.468c0.323,-0.433 0.597,-0.905 0.794,-1.416c2.181,0.465 6.639,1.553 7.62,2.828c1.688,2.186 -2.188,4.401 -3.111,5.11c-0.927,0.713 -2.837,2.96 -3.532,3.496c-1.766,1.361 -2.93,0.759 -3.691,-0.228c-0.726,-0.946 -1.333,-5.343 -1.594,-7.509c0.302,-0.065 0.59,-0.164 0.87,-0.273c2.501,1.499 4.394,2.587 4.394,2.46z"/>
  <path id="svg_25" fill="#ED3543" d="m390.496849,300.699046c-0.003,-0.124 -0.021,-0.243 -0.025,-0.364c1.918,-1.68 3.304,-2.922 3.304,-2.988c0,-0.061 -1.755,0.043 -4.204,0.223c-0.395,-0.627 -0.896,-1.181 -1.487,-1.629c1.095,-1.826 3.688,-5.93 5.265,-6.461c2.618,-0.884 3.448,3.501 3.817,4.604c0.374,1.108 1.877,3.648 2.158,4.479c0.711,2.115 -0.235,3.021 -1.42,3.418c-1.098,0.369 -5.234,-0.431 -7.422,-0.898c0.004,-0.128 0.014,-0.255 0.014,-0.384z"/>
  <circle id="svg_26" r="3.633" fill="#ED3543" cy="300.768046" cx="384.450849"/>
  <path id="svg_28" fill="#ED3543" d="m121.224849,225.913046c-0.668,-0.022 -1.417,-0.038 -2.229,-0.041l-6.054,14.168c0.814,0.713 1.412,1.265 1.847,1.685c3.623,-4.6 6.277,-9.022 6.436,-15.812z"/>
  <path id="svg_29" fill="#ED3543" d="m123.868849,222.554046c-1.133,-0.542 -3.595,-1.595 -5.659,-1.595c-1.786,0 -2.945,0.365 -3.608,0.704c2.044,1.346 3.653,2.512 4.18,2.899c2.859,0.005 4.827,0.156 6.057,0.293c-0.257,-0.799 -0.583,-1.568 -0.97,-2.301z"/>
  <path id="svg_30" fill="#ED3543" d="m115.416849,230.917046c-5.285,-3.235 -13.611,-7.994 -16.196,-8.652c-0.595,1.063 -1.042,2.214 -1.346,3.426c1.943,2.732 12.002,7.838 16.328,8.065l1.214,-2.839z"/>
  <path id="svg_31" fill="#ED3543" d="m105.119849,238.682046c-0.756,-0.321 -1.502,-0.663 -2.221,-1.024c0.132,0.951 0.453,2.254 1.136,3.309c1.087,0.683 2.271,1.222 3.534,1.586c-1.083,-1.286 -2.135,-2.89 -2.449,-3.871z"/>
  <path id="svg_32" fill="#ED3543" d="m113.665849,235.013046c-3.946,-0.533 -12.74,-4.363 -16.095,-7.741c-0.076,0.595 -0.129,1.199 -0.129,1.816c0,1.187 0.162,2.325 0.438,3.426c1.95,2.51 8.161,5.728 13.881,6.96l1.905,-4.461z"/>
  <path id="svg_33" fill="#ED3543" d="m115.934849,229.703046l1.824,-4.271c-3.269,-2.378 -10.922,-7.52 -14.229,-7.903c-1.412,0.971 -2.631,2.19 -3.607,3.6c3.902,1.26 13.336,6.939 16.012,8.574z"/>
  <path id="svg_34" fill="#ED3543" d="m113.964849,242.757046c-0.577,-0.559 -1.369,-1.28 -2.115,-1.93c-1.541,-0.312 -3.248,-0.813 -4.958,-1.445c0.759,1.271 2.103,2.935 2.904,3.623c0.549,0.065 1.103,0.108 1.67,0.108c0.814,0 1.614,-0.086 2.388,-0.22c0.037,-0.045 0.075,-0.09 0.111,-0.136z"/>
  <path id="svg_35" fill="#ED3543" d="m101.519849,236.923046c-0.981,-0.554 -1.887,-1.139 -2.669,-1.74c0.762,1.573 1.804,2.98 3.066,4.159c-0.258,-0.929 -0.374,-1.807 -0.397,-2.419z"/>
  <path id="svg_36" fill="#ED3543" d="m116.175849,217.003046c-1.971,0 -4.528,0.344 -6.082,1.882c1.121,0.635 2.244,1.32 3.299,1.994c0.84,-0.633 2.436,-1.229 4.817,-1.229c1.487,0 3.097,0.455 4.392,0.94c-0.931,-1.225 -2.052,-2.294 -3.332,-3.152c-0.623,-0.187 -1.703,-0.435 -3.094,-0.435z"/>
  <path id="svg_37" fill="#ED3543" d="m122.530849,225.978046c-0.174,7.051 -2.98,11.774 -6.587,16.392c5.548,-1.87 9.547,-7.104 9.547,-13.282c0,-0.981 -0.104,-1.94 -0.296,-2.866c-0.592,-0.081 -1.468,-0.172 -2.664,-0.244z"/>
  <path id="svg_38" fill="#ED3543" d="m108.914849,218.242046c1.399,-1.578 3.714,-2.443 6.76,-2.535c-1.328,-0.414 -2.742,-0.643 -4.209,-0.643c-2.272,0 -4.41,0.552 -6.31,1.514c1.128,0.364 2.421,0.956 3.759,1.664z"/>
  <circle id="svg_39" r="15.879" fill="#F1EEED" cy="229.088046" cx="382.852849"/>
  <path id="svg_41" fill="#ED3543" d="m373.096849,225.913046c0.663,-0.022 1.411,-0.038 2.227,-0.041l6.054,14.168c-0.813,0.713 -1.414,1.265 -1.85,1.685c-3.621,-4.6 -6.277,-9.022 -6.431,-15.812z"/>
  <path id="svg_42" fill="#ED3543" d="m370.449849,222.554046c1.131,-0.542 3.595,-1.595 5.659,-1.595c1.789,0 2.945,0.365 3.605,0.704c-2.039,1.346 -3.653,2.512 -4.177,2.899c-2.859,0.005 -4.83,0.156 -6.055,0.293c0.255,-0.799 0.581,-1.568 0.968,-2.301z"/>
  <path id="svg_43" fill="#ED3543" d="m378.904849,230.917046c5.282,-3.235 13.608,-7.994 16.196,-8.652c0.592,1.063 1.042,2.214 1.344,3.426c-1.943,2.732 -12,7.838 -16.331,8.065l-1.209,-2.839z"/>
  <path id="svg_44" fill="#ED3543" d="m389.196849,238.682046c0.759,-0.321 1.502,-0.663 2.221,-1.024c-0.129,0.951 -0.45,2.254 -1.134,3.309c-1.087,0.683 -2.271,1.222 -3.531,1.586c1.078,-1.286 2.135,-2.89 2.444,-3.871z"/>
  <path id="svg_45" fill="#ED3543" d="m380.652849,235.013046c3.946,-0.533 12.738,-4.363 16.093,-7.741c0.076,0.595 0.132,1.199 0.132,1.816c0,1.187 -0.162,2.325 -0.44,3.426c-1.948,2.51 -8.162,5.728 -13.879,6.96l-1.906,-4.461z"/>
  <path id="svg_46" fill="#ED3543" d="m378.383849,229.703046l-1.824,-4.271c3.271,-2.378 10.922,-7.52 14.229,-7.903c1.409,0.971 2.634,2.19 3.605,3.6c-3.897,1.26 -13.334,6.939 -16.01,8.574z"/>
  <path id="svg_47" fill="#ED3543" d="m380.351849,242.757046c0.576,-0.559 1.371,-1.28 2.114,-1.93c1.544,-0.312 3.249,-0.813 4.959,-1.445c-0.759,1.271 -2.1,2.935 -2.904,3.623c-0.547,0.065 -1.103,0.108 -1.67,0.108c-0.814,0 -1.608,-0.086 -2.388,-0.22c-0.035,-0.045 -0.075,-0.09 -0.111,-0.136z"/>
  <path id="svg_48" fill="#ED3543" d="m392.798849,236.923046c0.982,-0.554 1.886,-1.139 2.667,-1.74c-0.759,1.573 -1.802,2.98 -3.066,4.159c0.257,-0.929 0.374,-1.807 0.399,-2.419z"/>
  <path id="svg_49" fill="#ED3543" d="m378.140849,217.003046c1.973,0 4.528,0.344 6.087,1.882c-1.124,0.635 -2.247,1.32 -3.305,1.994c-0.84,-0.633 -2.434,-1.229 -4.814,-1.229c-1.487,0 -3.099,0.455 -4.395,0.94c0.937,-1.225 2.055,-2.294 3.332,-3.152c0.626,-0.187 1.704,-0.435 3.095,-0.435z"/>
  <path id="svg_50" fill="#ED3543" d="m371.785849,225.978046c0.177,7.051 2.98,11.774 6.588,16.392c-5.546,-1.87 -9.546,-7.104 -9.546,-13.282c0,-0.981 0.104,-1.94 0.297,-2.866c0.592,-0.081 1.467,-0.172 2.661,-0.244z"/>
  <path id="svg_51" fill="#ED3543" d="m385.401849,218.242046c-1.396,-1.578 -3.712,-2.443 -6.761,-2.535c1.331,-0.414 2.743,-0.643 4.21,-0.643c2.272,0 4.412,0.552 6.31,1.514c-1.126,0.364 -2.418,0.956 -3.759,1.664z"/>
  <path id="svg_52" fill="#C6CACD" d="m329.369849,264.798046c0,-7.205 -6.343,-11.42 -13.136,-11.42c-7.571,0 -12.812,6.507 -13.221,6.507c-0.41,0 1.72,-6.017 11.46,-13.179c7.099,-5.219 14.119,-10.106 14.119,-17.722c0,-8.759 -5.689,-14.445 -13.259,-14.445c-12.482,0 -14.693,9.904 -14.693,11.581c0,2.047 0.738,2.904 0.738,2.904s-0.164,-5.892 6.3,-5.892c3.851,0 5.363,3.969 5.363,5.852c0,1.885 -0.04,3.724 -7.246,10.19c-7.199,6.469 -13.218,11.051 -13.218,18.992s3.848,12.441 9.373,18.703s5.403,9.209 5.403,12.933c0,3.725 -3.111,7.081 -7.574,7.081c-5.389,0 -13.3,-2.157 -16.029,-10.068c-2.728,-7.911 -3.491,-12.387 -4.038,-18.443c-0.395,-4.399 -2.4,-9.277 -4.311,-11.296l0.602,-6.55c0,0 0.982,0.764 3.112,0.764c4.144,0 9.219,-3.981 9.219,-8.783c0,-4.369 -2.839,-6.823 -2.839,-6.823s-0.053,3.547 -4.093,3.547c-4.038,0 -7.256,-3.436 -7.256,-8.948s2.348,-7.967 5.51,-7.967c5.131,0 8.132,4.149 8.132,4.149c-0.491,-3.332 -1.175,-6.36 -0.162,-10.479c0,0 -1.199,0.41 -3.112,0.41c-2.755,0 -3.739,-0.875 -3.739,-2.758c0,-1.882 2.379,-5.338 5.622,-5.32c4.584,0.028 4.185,2.128 4.185,2.128s3.701,-5.43 4.11,-5.672c0.407,-0.248 0.19,-2.839 0.19,-2.839l1.831,0.845l2.069,-3.356c-0.87,-2.265 -3.924,-3.203 -4.746,-3.846c-1.255,-0.984 -2.264,-2.973 -2.264,-3.438c-2.866,-0.521 -24.064,-2.13 -24.064,-13.861c-1.473,0.655 -9.004,4.42 -9.004,8.84c0,1.311 0.643,2.047 0.643,2.047c-2.416,0 -9.333,-0.572 -12.32,6.385c2.292,-1.021 6.507,0.941 6.507,5.361s-4.504,7.981 -8.39,7.981c-4.339,0 -5.075,-3.192 -5.075,-3.192c-1.515,1.27 -3.438,7.938 3.644,11.293c0,2.662 -5.649,12.032 -6.467,12.032c-7.286,0 -15.554,-2.216 -18.048,-3.678c-5.649,-3.319 -10.231,-8.162 -12.116,-8.162l0,-3.382c5.075,-3.398 11.908,-8.799 11.908,-16.576c0,-6.793 -5.852,-15.02 -15.837,-15.02c-10.396,0 -15.756,9.658 -15.756,14.936c0,8.091 8.253,14.284 11.417,14.284c-0.928,1.475 -4.037,1.913 -4.037,1.913c0.816,0.789 3.159,1.73 4.814,1.73l0,2.046c-3.041,0 -6.179,2.497 -6.179,5.361c0,2.236 1.746,3.192 1.746,3.547c0,0.9 -2.155,1.503 -2.155,3.684c0,1.829 2.019,2.839 2.019,3.466s-0.729,5.409 4.569,5.409l0,33.309c-0.531,0 -3.725,2.317 -4.269,4.255c-1.174,0.081 -4.475,-2.135 -4.475,5.151c2.074,-1.883 3.929,-1.64 3.929,-1.64c-0.873,1.201 -1.528,2.074 -1.528,4.04s0.817,3.464 0.817,3.464c1.229,-2.156 3.276,-0.102 3.739,-0.102c0,4.422 0.872,5.51 1.786,6.411l0,25.061l-2.292,0l0,6.796l3.807,0c-1.403,0.692 -3.245,2.332 -3.245,5.034c0,3.436 3.226,5.257 5.742,5.257c2.518,0 5.384,-2.271 5.384,-5.277c0,-3.011 -2.416,-4.563 -3.38,-5.014l3.663,0l0,-6.796l-2.168,0l0,-22.263c0,0 0.757,0.655 2.396,0.655c-0.807,-5.771 5.66,-9.535 10.408,-9.535c4.802,0 6.659,3.382 6.659,3.382c14.188,-5.158 20.462,-14.38 21.063,-14.38c0.598,0 5.723,9.379 5.723,9.379c-4.893,1.371 -26.01,15.574 -26.01,26.543c0,5.361 6.221,7.855 6.221,7.855c0,15.473 -6.674,18.008 -9.659,18.008c-2.987,0 -4.829,-0.614 -8.429,-0.614c-3.604,0 -10.601,2.006 -10.601,7.817c0,2.742 0.981,4.301 0.981,4.301s-0.43,1.103 -0.43,2.146c0,3.213 2.168,5.629 3.744,6.079c-0.981,-4.83 3.273,-6.282 7.347,-6.282c0,1.799 0.652,5.895 4.315,7.569c-0.756,-6.77 5.69,-7.488 7.246,-7.488c0,1.604 0.776,4.523 5.252,6.214c-0.956,-3.082 1.032,-5.64 4.817,-6.317c5.484,-0.979 6.957,-3.397 8.591,-10.312c0.932,-3.93 3.236,-10.069 14.572,-11.992c-8.308,-2.047 -11.01,-4.624 -11.01,-7.981c0,-6.259 11.42,-9.78 13.998,-9.78c6.507,11.174 12.439,14.243 17.23,14.243c0.941,0.612 2.045,3.519 2.045,6.466c0,5.318 -2.004,9.25 -3.314,9.25s-16.642,-1.119 -16.642,8.513c0,2.208 0.966,2.927 0.966,2.927c0,1.083 0.246,4.643 2.824,6.259c0.718,-3.905 2.967,-5.031 9.229,-5.031c0,1.697 0.574,5.095 3.378,6.097c0,-1.738 0.104,-6.16 6.731,-6.16c0,2.171 0.9,4.154 3.502,4.829c-0.474,-1.861 1.594,-4.829 4.538,-4.829c2.252,0 3.891,-1.225 3.891,-4.913c0,-3.679 0,-9.697 0,-12.766c0,-5.895 4.337,-16.697 10.19,-22.266c-2.987,1.313 -5.155,1.677 -6.795,1.677c-13.874,0 -18.458,-16.737 -17.924,-16.737c0.531,0 6.752,7.448 19.685,7.448c11.706,0 15.918,-6.629 15.918,-12.523c0,-12.726 -11.784,-18.827 -11.784,-24.429c0,-2.418 2.702,-4.425 5.115,-4.425c2.414,0 7.696,2.497 7.696,7.329c0,1.961 -1.599,4.458 -1.599,4.458c7.088,-2.376 10.195,-9.579 10.195,-12.156zm-126.115,-63.724c-2.125,0 -1.336,-1.725 -1.336,-3.848c0,-2.125 -0.789,-3.117 1.336,-3.117s3.848,0.992 3.848,3.117c-0.001,2.124 -1.723,3.848 -3.848,3.848zm15.043,64.786c-1.814,1.389 -6.958,5.813 -11.195,5.813l0,-31.146c2.887,0 13.077,2.413 13.077,6.833c0,1.842 -1.801,4.256 -4.422,4.256c1.107,2.661 4.382,3.767 7.531,3.767c7.981,0 10.765,-5.893 11.215,-5.893s3.273,3.765 3.273,4.625c-5.403,2.374 -15.103,8.39 -19.479,11.745z"/>
  <path id="svg_53" fill="#C6CACD" d="m293.457849,209.607046l-1.902,2.639c0,0 2.188,3.909 6.793,3.909c6.876,0 8.368,-6.957 8.103,-8.983c0,0 -1.771,4.358 -7.433,4.358c-3.945,0 -5.561,-1.923 -5.561,-1.923z"/>
  <path id="svg_54" fill="#005397" d="m324.478849,259.839046c0,-7.205 -6.343,-11.42 -13.138,-11.42c-7.572,0 -12.812,6.507 -13.221,6.507c-0.408,0 1.72,-6.016 11.46,-13.178c7.099,-5.217 14.122,-10.107 14.122,-17.723c0,-8.758 -5.689,-14.445 -13.262,-14.445c-12.482,0 -14.693,9.904 -14.693,11.582c0,2.047 0.738,2.904 0.738,2.904s-0.164,-5.89 6.302,-5.89c3.849,0 5.361,3.967 5.361,5.849c0,1.883 -0.041,3.725 -7.243,10.193c-7.203,6.464 -13.219,11.048 -13.219,18.989s3.846,12.442 9.371,18.703c5.524,6.262 5.403,9.209 5.403,12.934c0,3.724 -3.111,7.078 -7.572,7.078c-5.391,0 -13.3,-2.153 -16.031,-10.063c-2.728,-7.914 -3.491,-12.392 -4.038,-18.448c-0.395,-4.397 -2.398,-9.274 -4.311,-11.294l0.602,-6.547c0,0 0.981,0.762 3.112,0.762c4.144,0 9.219,-3.984 9.219,-8.786c0,-4.364 -2.836,-6.821 -2.836,-6.821s-0.054,3.547 -4.094,3.547c-4.037,0 -7.258,-3.436 -7.258,-8.95c0,-5.511 2.348,-7.965 5.513,-7.965c5.128,0 8.131,4.149 8.131,4.149c-0.491,-3.329 -1.172,-6.36 -0.165,-10.479c0,0 -1.198,0.409 -3.106,0.409c-2.758,0 -3.741,-0.875 -3.741,-2.757c0,-1.883 2.375,-5.338 5.624,-5.318c4.584,0.025 3.243,3.491 3.243,3.491s4.64,-6.795 5.05,-7.038c0.409,-0.248 0.189,-2.838 0.189,-2.838l1.829,0.845l2.072,-3.354c-0.873,-2.268 -3.924,-3.206 -4.746,-3.851c-1.258,-0.981 -2.265,-2.976 -2.265,-3.436c-2.863,-0.519 -24.064,-2.128 -24.064,-13.861c-1.473,0.655 -9.006,4.42 -9.006,8.839c0,1.311 0.643,2.047 0.643,2.047c-2.414,0 -9.331,-0.571 -12.321,6.386c2.292,-1.022 6.507,0.941 6.507,5.363c0,4.417 -4.498,7.979 -8.389,7.979c-4.336,0 -5.075,-3.193 -5.075,-3.193c-1.513,1.268 -3.436,7.939 3.644,11.296c0,2.659 -5.647,12.03 -6.467,12.03c-7.286,0 -15.554,-2.217 -18.048,-3.684c-5.647,-3.314 -10.231,-8.156 -12.113,-8.156l0,-3.383c5.075,-3.397 11.91,-8.799 11.91,-16.573c0,-6.795 -5.854,-15.022 -15.842,-15.022c-10.393,0 -15.756,9.659 -15.756,14.939c0,8.088 8.252,14.28 11.42,14.28c-0.926,1.478 -4.038,1.913 -4.038,1.913c0.819,0.789 3.157,1.73 4.814,1.73l0,2.049c-3.043,0 -6.181,2.495 -6.181,5.358c0,2.236 1.746,3.193 1.746,3.547c0,0.901 -2.156,1.503 -2.156,3.684c0,1.829 2.021,2.839 2.021,3.466c0,0.628 -0.73,5.409 4.569,5.409l0,33.309c-0.534,0 -3.722,2.317 -4.271,4.255c-1.171,0.084 -4.473,0.603 -4.473,7.886c2.072,-1.882 3.929,-1.637 3.929,-1.637c-0.875,1.199 -1.528,2.075 -1.528,4.038c0,1.966 0.817,3.466 0.817,3.466c1.228,-2.155 3.273,-2.839 3.739,-2.839c0,4.42 0.873,5.513 1.786,6.411l0,25.062l-2.289,0l0,6.795l3.805,0c-1.407,0.693 -3.249,2.332 -3.249,5.034c0,3.436 3.229,5.258 5.743,5.258c2.52,0 5.384,-2.272 5.384,-5.28c0,-3.006 -2.413,-4.562 -3.378,-5.012l3.664,0l0,-6.795l-2.168,0l0,-22.264c0,0 0.756,0.655 2.393,0.655c-0.805,-5.771 5.662,-9.535 10.408,-9.535c4.802,0 6.658,3.383 6.658,3.383c14.188,-5.156 20.462,-14.38 21.064,-14.38c0.602,0 5.723,9.378 5.723,9.378c-4.893,1.371 -26.008,15.574 -26.008,26.544c0,5.36 6.219,7.857 6.219,7.857c0,15.468 -6.671,18.008 -9.659,18.008c-2.985,0 -4.827,-0.614 -8.43,-0.614s-10.6,2.003 -10.6,7.814c0,2.745 0.981,4.301 0.981,4.301s-0.431,1.104 -0.431,2.146c0,3.216 2.171,5.632 3.747,6.079c-0.984,-4.829 3.273,-6.281 7.345,-6.281c0,1.801 0.655,5.892 4.318,7.569c-0.757,-6.772 5.689,-7.488 7.243,-7.488c0,1.604 0.779,4.521 5.252,6.213c-0.951,-3.081 1.032,-5.637 4.816,-6.314c5.485,-0.986 6.957,-3.4 8.595,-10.314c0.931,-3.929 3.235,-10.069 14.569,-11.991c-8.309,-2.047 -11.01,-4.622 -11.01,-7.979c0,-6.265 11.42,-9.783 14,-9.783c6.504,11.175 12.439,14.243 17.229,14.243c0.941,0.612 2.044,3.52 2.044,6.467c0,5.32 -2.003,9.249 -3.313,9.249c-1.309,0 -16.642,-1.118 -16.642,8.516c0,2.206 0.966,2.922 0.966,2.922c0,1.085 0.248,4.645 2.823,6.262c0.719,-3.906 2.971,-5.032 9.229,-5.032c0,1.697 0.574,5.096 3.38,6.097c0,-1.737 0.102,-6.16 6.729,-6.16c0,2.171 0.9,4.154 3.501,4.832c-0.471,-1.864 1.594,-4.832 4.541,-4.832c2.252,0 3.889,-1.225 3.889,-4.91c0,-3.681 0,-9.697 0,-12.769c0,-5.895 4.337,-16.697 10.19,-22.263c-2.985,1.306 -5.155,1.675 -6.795,1.675c-13.871,0 -18.456,-16.735 -17.925,-16.735s6.753,7.445 19.686,7.445c11.706,0 15.921,-6.628 15.921,-12.522c0,-12.729 -11.787,-18.828 -11.787,-24.429c0,-2.419 2.702,-4.423 5.115,-4.423c2.416,0 7.696,2.495 7.696,7.324c0,1.966 -1.597,4.46 -1.597,4.46c7.087,-2.376 10.196,-9.578 10.196,-12.156zm-126.115,-63.723c-2.122,0 -3.848,-1.723 -3.848,-3.846c0,-2.128 1.726,-3.851 3.848,-3.851c2.123,0 3.849,1.723 3.849,3.851c0,2.123 -1.726,3.846 -3.849,3.846zm15.04,64.785c-1.811,1.392 -6.957,5.813 -11.191,5.813l0,-31.147c2.884,0 13.074,2.416 13.074,6.836c0,1.841 -1.802,4.255 -4.42,4.255c1.105,2.661 4.379,3.767 7.531,3.767c7.979,0 10.763,-5.892 11.213,-5.892s3.273,3.765 3.273,4.624c-5.398,2.373 -15.1,8.39 -19.48,11.744z"/>
  <path id="svg_55" fill="#627EB7" d="m248.639849,195.954046c0,4.266 -4.191,7.721 -7.981,7.954l0,0.01c7.334,0 10.588,-4.842 10.588,-9.262c0,-3.494 -1.989,-6.413 -4.746,-6.413c-2.755,0 -4.367,2.348 -4.367,2.348c2.292,-1.023 6.506,0.941 6.506,5.363z"/>
  <path id="svg_56" fill="#627EB7" d="m206.037849,192.473046c0,-2.319 -1.964,-5.674 -5.812,-5.674c-4.528,0 -5.812,3.817 -5.812,5.472c0,3.162 2.236,6.178 6.085,6.178l0,3.603c3.985,-3.685 5.539,-7.262 5.539,-9.579zm-7.674,3.643c-2.122,0 -3.848,-1.723 -3.848,-3.846c0,-2.128 1.726,-3.851 3.848,-3.851c2.123,0 3.849,1.723 3.849,3.851c0,2.123 -1.726,3.846 -3.849,3.846z"/>
  <path id="svg_57" fill="#627EB7" d="m182.504849,192.187046c0,8.088 8.252,14.28 11.42,14.28c-3.712,-1.882 -7.777,-7.609 -7.777,-14.157c0,-5.556 2.391,-11.101 8.557,-14.658c-8.057,1.878 -12.2,9.895 -12.2,14.535z"/>
  <path id="svg_58" fill="#627EB7" d="m194.700849,212.160046c0.671,0 1.869,1.172 3.727,1.533l0,-3.765c0,0 -2.5,0.183 -3.727,0.183l0,2.049z"/>
  <path id="svg_59" fill="#627EB7" d="m202.191849,212.226046l0,2.967c0.956,0.137 5.394,1.733 9.755,3.687c-4.549,-3.102 -8.143,-6.654 -9.755,-6.654z"/>
  <path id="svg_60" fill="#627EB7" d="m192.777849,215.664046c1.637,0 7.722,3.793 7.722,4.202c0,0.41 -4.668,0.463 -6.193,0.463c-1.528,0 -3.494,-0.354 -3.494,-2.332c-0.001,-0.938 0.875,-2.333 1.965,-2.333z"/>
  <path id="svg_61" fill="#627EB7" d="m192.846849,222.199046c0.997,0 7.256,2.103 7.256,2.591c0,0.49 -5.263,1.487 -6.684,1.487c-1.417,0 -2.439,-0.805 -2.439,-2.039c-0.001,-0.673 0.541,-2.039 1.867,-2.039z"/>
  <path id="svg_62" fill="#627EB7" d="m193.800849,228.134046c0.589,0 5.224,0.86 5.224,1.283s-3.832,1.689 -5.224,1.689c-0.585,0 -1.444,-0.64 -1.444,-1.484c-0.001,-0.547 0.421,-1.488 1.444,-1.488z"/>
  <path id="svg_63" fill="#627EB7" d="m214.550849,266.715046c1.923,-0.94 26.767,-13.861 28.922,-16.545c0,0 -7.886,0 -10.588,-1.013c-5.398,2.373 -15.101,8.39 -19.48,11.744c-1.811,1.392 -6.957,5.813 -11.191,5.813c-1.557,0 -2.171,-0.533 -3.924,-0.533c0,0 0,-25.879 0,-28.608c0,-2.728 -2.756,-3.949 -3.588,-3.949l0,33.309c-0.534,0 -3.722,2.317 -4.271,4.255c-1.11,0.079 -4.121,0.55 -4.445,6.766c1.18,-2.272 3.489,-4.911 5.455,-4.911c0,-2.863 6.739,-3.134 11.159,-3.134s10.025,-2.253 11.951,-3.194z"/>
  <path id="svg_64" fill="#627EB7" d="m189.886849,277.436046c-0.875,1.199 -1.528,2.075 -1.528,4.038c0,1.123 0.266,2.079 0.496,2.707c0.511,-2.343 4.129,-6.459 4.129,-6.459s-2.518,-0.286 -3.097,-0.286z"/>
  <path id="svg_65" fill="#627EB7" d="m196.418849,282.737046c0,0 -0.88,-0.636 -3.504,-0.636c0,3.967 0.703,5.252 1.511,6.128c0.105,-3.203 1.993,-5.492 1.993,-5.492z"/>
  <path id="svg_66" fill="#627EB7" d="m198.288849,314.381046c0,-0.706 0,-28.978 0,-28.978c-2.346,0 -3.588,3.109 -3.588,3.109l0,25.062l-2.289,0l0,3.261c5.305,0 5.877,-1.753 5.877,-2.454z"/>
  <path id="svg_67" fill="#627EB7" d="m199.818849,324.422046c0,-2.279 -1.969,-3.37 -3.276,-3.37c-0.64,0 -1.485,0.319 -2.186,0.734c-0.782,0.87 -1.39,2.069 -1.39,3.617c0,0.152 0.016,0.294 0.028,0.445c0.622,1.113 1.683,2.31 3.109,2.31c2.389,0 3.715,-1.72 3.715,-3.736z"/>
  <path id="svg_68" fill="#627EB7" d="m202.212849,291.310046c0,0 0.756,0.655 2.393,0.655c-0.349,-0.533 -2.13,-2.292 -2.13,-4.174c0,-0.777 0.349,-1.392 0.349,-1.392s-1.123,-0.903 -3.374,-0.903c-0.001,3.031 0.57,4.567 2.762,5.814z"/>
  <path id="svg_69" fill="#627EB7" d="m242.953849,292.115046c7.913,-3.927 20.573,-7.641 20.573,-14.841c0,-6.003 -5.73,-7.205 -7.504,-7.205c0,0 1.664,2.184 1.664,4.504c0,6.41 -7.559,6.238 -9.229,6.238c-4.893,1.371 -26.008,15.574 -26.008,26.544c0,5.36 6.219,7.857 6.219,7.857c0,15.468 -6.671,18.008 -9.659,18.008c-2.985,0 -4.827,-0.614 -8.43,-0.614s-10.6,2.003 -10.6,7.814c0,2.745 0.981,4.301 0.981,4.301c1.25,-10.316 5.279,-8.799 17.639,-8.799c5.895,0 15.786,-6.431 15.786,-21.489c0,0 -6.168,-2.236 -6.168,-8.293c0.002,-7.205 6.822,-10.096 14.736,-14.025z"/>
  <path id="svg_70" fill="#627EB7" d="m200.531849,346.867046c0,3.216 2.171,5.632 3.747,6.079c-0.043,-0.207 -0.063,-0.397 -0.086,-0.589c-0.544,-0.585 -1.389,-1.797 -1.389,-3.737c0,-2.071 2.034,-3.898 2.034,-3.898l-3.876,0c0.001,0 -0.43,1.103 -0.43,2.145z"/>
  <path id="svg_71" fill="#627EB7" d="m215.751849,346.665046l-4.128,0c0,1.801 0.655,5.892 4.318,7.569c0,0 -1.42,-1.735 -1.42,-4.164c0,-2.431 1.23,-3.405 1.23,-3.405z"/>
  <path id="svg_72" fill="#627EB7" d="m228.292849,352.388046c-2.801,-2.788 -2.335,-5.642 -2.335,-5.642l-2.772,0c0,1.604 0.779,4.521 5.252,6.213c-0.059,-0.192 -0.107,-0.385 -0.145,-0.571z"/>
  <path id="svg_73" fill="#627EB7" d="m278.189849,338.501046c0.574,0 5.935,-7.736 5.935,-14.615c0,-5.196 -3.436,-8.47 -3.436,-8.47c-9.702,0 -13.507,-4.051 -13.507,-8.531c0,0 -2.907,-0.552 -4.483,-0.552c-1.573,0 -3.291,0.243 -3.291,0.243c6.504,11.175 12.439,14.243 17.229,14.243c0.941,0.612 2.044,3.52 2.044,6.467c0,5.32 -2.003,9.249 -3.313,9.249c-1.309,0 -16.642,-1.118 -16.642,8.516c0,2.206 0.966,2.922 0.966,2.922c-0.001,-6.649 3.835,-9.472 18.498,-9.472z"/>
  <path id="svg_74" fill="#627EB7" d="m261.395849,350.449046c0,-1.472 0.795,-2.477 0.795,-2.477l-2.5,0c0,1.029 0.228,4.299 2.464,6.009c-0.339,-0.685 -0.759,-1.865 -0.759,-3.532z"/>
  <path id="svg_75" fill="#627EB7" d="m273.757849,351.813046c0,-1.854 1.037,-2.611 1.037,-2.611l-3.051,0c0,1.697 0.574,5.096 3.38,6.097c0,-0.007 0,-0.018 0,-0.03c-0.369,-0.489 -1.366,-1.946 -1.366,-3.456z"/>
  <path id="svg_76" fill="#627EB7" d="m292.721849,254.733046c0,-8.126 6.165,-12.93 12.169,-18.17c6.001,-5.236 8.951,-8.349 8.951,-12.112c0,-6.467 -5.485,-8.321 -8.404,-8.321c-3.082,0 -8.258,1.654 -8.617,5.933c0.557,-1.708 2.034,-3.886 5.968,-3.886c3.849,0 5.361,3.967 5.361,5.849c0,1.883 -0.041,3.725 -7.243,10.193c-7.203,6.464 -13.219,11.048 -13.219,18.989s3.846,12.442 9.371,18.703c5.524,6.262 5.403,9.209 5.403,12.934c0,3.724 -3.111,7.078 -7.572,7.078c-4.794,0 -11.574,-1.715 -14.938,-7.66c1.274,3.891 5.384,11.837 17.354,11.837c9.331,0 10.914,-6.849 10.914,-10.149c0,-6.604 -3.876,-11.569 -7.312,-15.498c-3.44,-3.931 -8.186,-9.167 -8.186,-15.72z"/>
  <path id="svg_77" fill="#627EB7" d="m311.517849,256.808046c-5.565,0 -8.045,4.696 -8.257,6.725l0.007,0c0.65,-1.897 2.887,-3.324 4.921,-3.324c2.416,0 7.696,2.495 7.696,7.324c0,1.966 -1.597,4.46 -1.597,4.46c0.582,-0.192 1.126,-0.43 1.654,-0.688c2.148,-1.953 3.297,-4.043 3.297,-6.31c0.001,-2.92 -2.154,-8.187 -7.721,-8.187z"/>
  <path id="svg_78" fill="#627EB7" d="m285.328849,353.961046c-0.893,-0.916 -1.366,-2.844 -1.366,-3.653c0,-0.614 0.367,-1.169 0.367,-1.169l-2.477,0c0,2.163 0.896,4.141 3.476,4.822z"/>
  <path id="svg_80" fill="#F1EEED" d="m275.756849,192.063046c-0.081,1.384 -0.097,2.206 1.389,2.423l1.799,-2.423l-3.188,0z"/>
  <path id="svg_81" fill="#F1EEED" d="m273.342849,192.063046l-4.439,0c-1.038,2.484 4.525,4.966 6.357,4.966l0.786,-1.065c-2.674,-0.425 -2.854,-2.485 -2.704,-3.901z"/>
  <path id="svg_82" fill="#627EB7" d="m215.286849,242.403046c0,1.841 -1.802,4.255 -4.42,4.255c0,0 1.004,0.433 1.862,0.433c1.085,0 5.014,-0.35 5.014,-3.828c0,-3.855 -4.688,-5.401 -7.956,-5.95c2.927,1.156 5.5,2.869 5.5,5.09z"/>
  <path id="svg_83" fill="#ED3543" d="m288.566849,204.649046l-1.904,2.639c0,0 2.19,3.908 6.795,3.908c6.874,0 8.369,-6.957 8.104,-8.983c0,0 -1.773,4.359 -7.436,4.359c-3.944,0 -5.559,-1.923 -5.559,-1.923z"/>
  <path id="svg_84" fill="#627EB7" d="m231.062849,237.166046c0,1.063 -0.347,2.252 -0.733,3.334c5.809,0 7.139,-4.584 7.139,-8.272c0,-3.494 -1.007,-4.053 -1.007,-4.339c0,-0.574 4.281,-5.021 8.293,-17.271c-1.007,0 -10.259,-2.074 -9.424,-9.451l0,0c-0.111,-0.256 -0.154,-0.426 -0.154,-0.426c-1.513,1.268 -3.436,7.939 3.644,11.296c0,2.659 -5.647,12.03 -6.467,12.03c-5.272,0 -11.053,-1.164 -14.795,-2.358c6.456,3.814 13.504,9.769 13.504,15.457z"/>
  <path id="svg_85" fill="#627EB7" d="m253.811849,182.158046c0,1.311 0.643,2.047 0.643,2.047c-1.412,0 -4.362,-0.192 -7.165,1.032c3.491,-0.911 11.9,-0.678 11.9,-0.678s-1.381,-1.662 -1.381,-3.628c0,-1.963 3.299,-6.755 5.009,-7.612c-1.472,0.656 -9.006,4.42 -9.006,8.839z"/>
  <path id="svg_86" fill="#ED9B24" d="m161.154849,142.379046c0,0 -2.634,-1.228 -6.153,-1.228c-4.329,0 -16.33,2.988 -16.33,17.107c0,10.846 9.699,17.147 17.517,17.147s16.535,-6.671 16.535,-15.837c0,-4.584 -1.391,-6.672 -1.391,-6.672l-6.548,1.678c0,0 1.227,3.233 1.227,5.32s-2.249,7.202 -6.876,7.202c-4.624,0 -11.868,-7.202 -11.868,-12.811c0,-2.824 2.722,-6.548 6.856,-6.548s5.277,0.86 5.277,0.86l1.754,-6.218z"/>
  <polygon id="svg_87" points="168.1398468017578,128.71005249023438 176.93785095214844,124.49505615234375 182.46385192871094,135.5450439453125 188.47985076904297,132.67904663085938 183.40484619140625,121.7120361328125 192.36785125732422,117.53704833984375 206.56884765625,147.00604248046875 197.52684783935547,151.50604248046875 191.59185028076172,139.14505004882812 185.53485107421875,142.17404174804688 191.18184661865234,154.33004760742188 182.2188491821289,158.58505249023438 " fill="#ED9B24"/>
  <polygon id="svg_88" points="206.56884765625,113.13104248046875 227.2938461303711,108.81903076171875 228.7658462524414,115.47805786132812 217.6698455810547,117.53704833984375 218.9448471069336,123.3890380859375 229.36585235595703,121.31704711914062 230.51184844970703,128.08203125 220.30784606933594,129.98904418945312 221.56285095214844,137.03305053710938 232.58584594726562,134.63003540039062 234.1138458251953,141.07003784179688 212.9948501586914,145.3260498046875 " fill="#ED9B24"/>
  <polygon id="svg_89" points="241.6428451538086,107.78204345703125 251.79285430908203,107.78204345703125 251.35784149169922,134.1390380859375 262.48885345458984,134.1390380859375 262.48885345458984,141.28805541992188 241.04584503173828,141.01504516601562 " fill="#ED9B24"/>
  <path id="svg_90" fill="#ED9B24" d="m294.684849,122.845046l-6.656,2.237c-0.165,-3.494 -1.476,-6.33 -3.985,-6.33c-1.416,0 -2.236,1.528 -2.236,2.345c0,3.327 9.958,5.185 9.847,13.791c-0.089,7.205 -6.057,11.091 -11.334,11.091c-10.479,0 -12.812,-9.575 -12.893,-10.477l6.629,-2.906c0.248,1.475 1.351,5.976 4.584,5.976c1.432,0 2.702,-0.817 2.702,-2.616c0,-4.382 -9.945,-5.568 -9.945,-13.917c0,-2.783 1.885,-10.477 11.134,-10.477c9.246,-0.001 11.907,8.02 12.153,11.283z"/>
  <polygon id="svg_91" points="317.3978500366211,161.41104125976562 353.45384979248047,142.78604125976562 340.31885528564453,181.5030517578125 332.17284393310547,174.54605102539062 334.8748550415039,166.89505004882812 329.8408432006836,162.63803100585938 322.9638442993164,166.40505981445312 " fill="#ED9B24"/>
  <path id="svg_92" fill="#F1EEED" d="m159.340849,143.400046l-0.769,3.345c0,0 -2.26,-0.56 -4.388,-0.56c-4.053,0 -8.556,4.054 -8.556,8.676c0,5.976 7.777,13.709 13.712,13.709c4.013,0 8.144,-4.377 8.144,-9.209c0,-1.472 -0.736,-3.557 -0.736,-3.557l3.603,-1.027c0,0 0.901,2.497 0.901,4.503c0,7.489 -6.912,14.529 -15.104,14.529c-10.271,0 -15.797,-9.054 -15.797,-15.961c0,-8.473 6.178,-15.02 14.937,-15.02c2.271,0.001 4.053,0.572 4.053,0.572z"/>
  <polygon id="svg_93" points="170.13385009765625,129.49905395507812 176.43484497070312,126.3370361328125 181.86685180664062,137.71304321289062 190.75984954833984,133.37503051757812 185.30284881591797,122.40505981445312 191.63285064697266,119.26803588867188 204.39984893798828,146.09005737304688 198.20784759521484,149.363037109375 192.28784942626953,136.89605712890625 183.3648452758789,141.20703125 189.17584991455078,153.42904663085938 182.92984771728516,156.5660400390625 " fill="#F1EEED"/>
  <polygon id="svg_94" points="208.32984924316406,114.22103881835938 226.17584991455078,110.62103271484375 226.99285125732422,114.22103881835938 215.9418487548828,116.30804443359375 217.65985107421875,125.31103515625 228.2198486328125,123.18405151367188 228.83484649658203,126.70303344726562 218.55684661865234,128.7900390625 220.34185028076172,138.69503784179688 231.60385131835938,136.32205200195312 232.28784942626953,139.86605834960938 214.24984741210938,143.5240478515625 " fill="#F1EEED"/>
  <polygon id="svg_95" points="309.2688522338867,120.61404418945312 328.23084259033203,130.02505493164062 325.2758560180664,136.17303466796875 315.2748489379883,130.93505859375 312.6618423461914,136.32403564453125 322.13985443115234,141.134033203125 318.8628463745117,147.16204833984375 309.65685272216797,142.36004638671875 306.2968521118164,148.67303466796875 316.4468460083008,153.59405517578125 313.6718521118164,159.60104370117188 294.43685150146484,149.90203857421875 " fill="#ED9B24"/>
  <polygon id="svg_96" points="309.97985076904297,122.56103515625 326.2378463745117,130.75103759765625 324.65384674072266,134.08804321289062 314.6758499145508,128.90704345703125 310.4668502807617,137.04803466796875 320.08484649658203,141.89505004882812 318.3948440551758,145.04205322265625 309.02384185791016,140.3370361328125 304.30785369873047,149.22604370117188 314.63085174560547,154.31704711914062 312.9758529663086,157.52703857421875 296.5368423461914,149.26303100585938 " fill="#F1EEED"/>
  <polygon id="svg_97" points="243.1458511352539,109.44705200195312 250.04784393310547,109.44705200195312 249.66585540771484,135.53005981445312 260.90784454345703,135.53005981445312 260.90784454345703,139.623046875 242.68085479736328,139.26904296875 " fill="#F1EEED"/>
  <path id="svg_98" fill="#F1EEED" d="m320.114849,161.641046l3.109,2.867l7.008,-3.694l6.424,5.657l-2.601,7.531l5.565,4.802l11.132,-32.932l-30.637,15.769zm17.734,1.366l-4.427,-3.873l7.046,-3.714l-2.619,7.587z"/>
  <path id="svg_99" fill="#F1EEED" d="m292.802849,121.669046l-3.466,1.257c-0.326,-2.312 -1.963,-5.648 -5.317,-5.648c-2.565,0 -3.739,2.373 -3.739,3.848c0,5.075 9.876,5.538 9.876,13.505c0,5.677 -4.802,9.714 -9.685,9.714c-6.906,0 -10.369,-5.074 -11.161,-7.969l3.792,-1.718c0.683,3.056 2.593,5.452 5.484,5.452s4.228,-2.532 4.228,-4.306c0,-5.43 -9.712,-5.84 -9.712,-13.725c0,-4.967 4.313,-8.977 9.305,-8.977c5.431,0 9.494,3.985 10.395,8.567z"/>
  <polygon id="svg_100" points="154.0078468322754,367.4500427246094 156.8718490600586,364.2830505371094 148.21184921264648,356.0510559082031 135.15484809875488,369.4940490722656 139.76484870910645,373.7500305175781 144.8538475036621,368.2800598144531 148.79584884643555,372.0880432128906 151.65984725952148,369.0590515136719 147.72385025024414,365.1960754394531 149.64085006713867,363.1370544433594 " fill="#ED9B24"/>
  <path id="svg_101" fill="#ED9B24" d="m161.837849,370.011046c-4.966,0 -9.904,4.668 -9.904,10.357c0,4.131 3.724,9.206 9.411,9.206c3.562,0 9.702,-3.52 9.702,-10.547c0,-4.509 -3.398,-9.016 -9.209,-9.016zm-2.087,14.814c-1.544,0 -2.551,-1.087 -2.551,-2.671c0,-2.36 3.628,-7.433 6.315,-7.433c0.981,0 2.332,0.857 2.332,2.289c0.001,2.989 -4.359,7.815 -6.096,7.815z"/>
  <polygon id="svg_102" points="207.13085174560547,391.8690490722656 195.56085205078125,387.7450256347656 193.97985076904297,391.6480407714844 197.08384704589844,392.7540588378906 192.1228485107422,406.5720520019531 197.76885223388672,408.5110168457031 202.7438507080078,394.7680358886719 205.62784576416016,395.7980651855469 " fill="#ED9B24"/>
  <path id="svg_103" fill="#ED9B24" d="m222.137849,404.417046c0,0 1.988,-0.736 1.988,-4.255c0,-4.149 -4.363,-5.187 -4.363,-5.187l-8.2,-1.842l-4.105,18.213c0,0 7.612,1.94 9.796,1.94c3,0 5.947,-1.913 5.947,-5.568c-0.001,-2.617 -1.063,-3.301 -1.063,-3.301zm-7.934,4.311l0.729,-3.436c0,0 2.292,-0.357 2.292,1.826c-0.001,2.784 -3.021,1.61 -3.021,1.61zm1.589,-7.473l0.612,-2.813c0,0 1.748,-0.027 1.748,1.5c0,1.882 -2.36,1.313 -2.36,1.313z"/>
  <polygon id="svg_104" points="225.35485076904297,415.1940612792969 235.75084686279297,393.9380187988281 242.95384979248047,416.2870178222656 236.62384796142578,415.9590759277344 235.28784942626953,411.5660705566406 231.98584747314453,411.5110168457031 230.10084533691406,415.3870544433594 " fill="#ED9B24"/>
  <polygon id="svg_105" points="246.77384185791016,397.3790588378906 252.7238540649414,397.3790588378906 253.15885162353516,411.5660705566406 259.51485443115234,411.5660705566406 259.6508560180664,415.7940368652344 247.51285552978516,416.0950622558594 " fill="#ED9B24"/>
  <polygon id="svg_106" points="262.1358413696289,396.6120300292969 268.2178421020508,395.5500183105469 270.3478469848633,409.7660217285156 276.7018508911133,408.7810363769531 277.32984161376953,413.1470642089844 265.1358413696289,415.1390686035156 " fill="#ED9B24"/>
  <path id="svg_107" fill="#ED9B24" d="m305.079849,391.987046l2.292,-3.352c0,0 -2.618,-2.419 -6.509,-2.419c-5.318,0 -9.209,4.504 -9.209,9.659c0,5.075 4.503,10.028 9.618,10.028c5.566,0 9.333,-3.724 9.333,-9.844l-4.093,-0.511c0,2.249 -0.655,5.608 -3.889,5.608s-5.237,-4.624 -5.237,-7.205c0,-2.58 1.964,-3.845 3.744,-3.845c2.394,0.002 3.95,1.881 3.95,1.881z"/>
  <polygon id="svg_108" points="308.35384368896484,382.5180358886719 313.5938491821289,379.5480651855469 320.7938461303711,392.1110534667969 326.15685272216797,389.0860290527344 328.3678512573242,392.7260437011719 317.6858444213867,398.9880676269531 " fill="#ED9B24"/>
  <path id="svg_109" fill="#ED9B24" d="m321.245849,375.207046l4.87,-3.517l7.612,10.19c0,0 0.463,0.638 1.146,0.638c1.29,0 2.469,-1.164 2.469,-2.034c0,-0.301 -0.525,-0.937 -0.525,-0.937l-7.524,-10.089l3.534,-2.801l8.078,11.049c0,0 0.83,0.859 0.83,2.909c0,4.726 -5.654,7.526 -8.172,7.526c-2.965,0 -5.015,-2.904 -5.015,-2.904l-7.303,-10.03z"/>
  <polygon id="svg_110" points="154.0078468322754,365.7550354003906 155.23384857177734,364.3640441894531 148.24984741210938,357.5990295410156 136.81984901428223,369.5220642089844 139.5718479156494,372.1410217285156 144.80184936523438,366.5550231933594 148.74084854125977,370.4480285644531 150.0228500366211,369.0850524902344 146.11884689331055,365.1480407714844 149.5598487854004,361.4700622558594 " fill="#F1EEED"/>
  <path id="svg_111" fill="#F1EEED" d="m161.487849,371.032046c-4.247,0 -8.272,4.765 -8.272,9.047c0,4.994 4.175,8.24 7.992,8.24c3.714,0 8.854,-4.288 8.854,-9.017c0,-4.133 -3.749,-8.27 -8.574,-8.27zm-1.778,14.887c-1.966,0 -3.658,-1.771 -3.658,-3.547c0,-3.572 4.571,-8.936 7.438,-8.936c1.766,0 3.504,1.403 3.504,3.466c0,3.45 -4.146,9.017 -7.284,9.017z"/>
  <path id="svg_112" fill="#ED9B24" d="m178.957849,381.456046c-4.873,0.951 -8.83,6.474 -7.742,12.058c0.79,4.055 5.414,8.328 11,7.24c3.494,-0.684 8.848,-5.308 7.504,-12.209c-0.861,-4.428 -5.058,-8.199 -10.762,-7.089zm0.784,14.941c-1.513,0.293 -2.712,-0.585 -3.016,-2.138c-0.45,-2.317 2.14,-7.992 4.778,-8.506c0.964,-0.188 2.452,0.397 2.728,1.804c0.57,2.935 -2.783,8.506 -4.49,8.84z"/>
  <path id="svg_113" fill="#F1EEED" d="m178.809849,382.528046c-4.169,0.813 -7.21,6.254 -6.39,10.459c0.953,4.902 5.672,7.288 9.421,6.558c3.643,-0.709 7.87,-5.9 6.967,-10.54c-0.789,-4.061 -5.261,-7.398 -9.998,-6.477zm1.099,14.947c-1.928,0.377 -3.927,-1.039 -4.266,-2.782c-0.684,-3.507 2.777,-9.645 5.591,-10.193c1.73,-0.336 3.709,0.711 4.104,2.735c0.658,3.384 -2.348,9.643 -5.429,10.24z"/>
  <polygon id="svg_114" points="196.24185180664062,389.0860290527344 205.57184600830078,392.4100646972656 204.97384643554688,394.2980651855469 202.02684783935547,393.1340637207031 197.19784545898438,407.1190490722656 193.6228485107422,405.7000427246094 198.3968505859375,391.9220275878906 195.56085205078125,391.0230407714844 " fill="#F1EEED"/>
  <path id="svg_115" fill="#F1EEED" d="m220.336849,404.199046c0,0 2.863,-0.519 2.863,-3.956c0,-3.441 -3.82,-4.393 -3.82,-4.393l-7.149,-1.502l-3.189,16.153c0,0 6.165,1.718 8.513,1.718c2.345,0 4.635,-1.771 4.635,-4.501s-1.853,-3.519 -1.853,-3.519zm-4.544,5.88c-0.485,0 -2.818,-0.635 -2.818,-0.635l1.189,-5.566c0,0 4.275,0.185 4.275,3.13c0,2.95 -2.166,3.071 -2.646,3.071zm1.164,-7.519c-0.719,0 -2.467,-0.44 -2.467,-0.44l1.029,-5.042c0,0 3.901,0.192 3.901,2.565c0.001,2.371 -1.75,2.917 -2.463,2.917z"/>
  <path id="svg_116" fill="#ED9B24" d="m351.358849,361.182046c0,0 0.476,-2.07 -2.469,-3.995c-3.471,-2.274 -6.729,0.814 -6.729,0.814l-6.026,5.856l12.996,13.404c0,0 5.786,-5.313 6.98,-7.14c1.644,-2.515 1.659,-6.023 -1.402,-8.025c-2.194,-1.431 -3.35,-0.914 -3.35,-0.914zm-0.728,9.001l-2.479,-2.497c0,0 0.959,-2.109 2.783,-0.913c2.33,1.517 -0.304,3.41 -0.304,3.41zm-5.389,-5.424l-2.014,-2.052c0,0 0.931,-1.476 2.209,-0.641c1.577,1.031 -0.195,2.693 -0.195,2.693z"/>
  <path id="svg_117" fill="#F1EEED" d="m350.195849,362.567046c0,0 1.133,-2.679 -1.746,-4.562c-2.876,-1.879 -5.768,0.795 -5.768,0.795l-5.167,5.158l11.774,11.514c0,0 4.813,-4.22 6.095,-6.186c1.282,-1.963 1.055,-4.853 -1.229,-6.345c-2.284,-1.492 -3.959,-0.374 -3.959,-0.374zm2.434,7.024c-0.264,0.402 -2.074,2.009 -2.074,2.009l-4.008,-4.038c0,0 2.494,-3.481 4.959,-1.867c2.468,1.612 1.39,3.489 1.123,3.896zm-5.657,-5.091c-0.392,0.598 -1.72,1.824 -1.72,1.824l-3.653,-3.625c0,0 2.294,-3.157 4.28,-1.857c1.988,1.301 1.485,3.061 1.093,3.658z"/>
  <path id="svg_118" fill="#F1EEED" d="m237.523849,414.949046l3.82,0l-5.867,-17.896l-8.386,17.059l2.348,0.066l1.864,-3.825l4.888,0.232l1.333,4.364zm-5.368,-6.345l2.107,-4.324l1.323,4.324l-3.43,0z"/>
  <polygon id="svg_119" points="247.81084442138672,398.4970397949219 251.76685333251953,398.4970397949219 252.14684295654297,412.8210754394531 258.61585235595703,412.8210754394531 258.61585235595703,414.8090515136719 248.4918441772461,414.8090515136719 " fill="#F1EEED"/>
  <polygon id="svg_120" points="263.4718551635742,397.3790588378906 267.23485565185547,396.8020324707031 269.52684783935547,411.0200500488281 275.75084686279297,409.9820251464844 276.04984283447266,412.2500305175781 266.03585052490234,413.8030700683594 " fill="#F1EEED"/>
  <path id="svg_121" fill="#F1EEED" d="m304.629849,390.436046l1.207,-1.68c0,0 -1.802,-1.392 -4.706,-1.392c-4.361,0 -8.338,3.639 -8.227,8.471c0.101,4.377 2.99,8.799 8.492,8.799c3.99,0 8.083,-3.074 8.083,-7.569l-2.046,-0.248c0,3.235 -2.229,5.424 -4.911,5.424c-4.215,0 -6.221,-5.669 -6.221,-8.288c0,-2.494 1.945,-4.953 4.729,-4.953c1.963,0 3.6,1.436 3.6,1.436z"/>
  <polygon id="svg_122" points="310.0468521118164,382.9720153808594 313.2118453979492,381.0080261230469 320.4408493041992,393.6140441894531 325.7868423461914,390.5840759277344 326.8248519897461,392.3850402832031 318.14884185791016,397.3230285644531 " fill="#F1EEED"/>
  <path id="svg_123" fill="#F1EEED" d="m322.786849,375.417046l3.084,-2.295l7.094,9.632c0,0 0.792,1.093 2.047,1.093c1.336,0 3.479,-1.718 3.479,-3.383c0,-0.779 -0.857,-1.842 -0.857,-1.842l-6.796,-9.047l1.69,-1.336l6.911,9.265c0,0 1.228,1.409 1.228,3.211c0,2.947 -4.01,6.241 -7.122,6.241c-2.211,0 -3.579,-2.007 -3.579,-2.007l-7.179,-9.532z"/>
  <path opacity="0.5" id="svg_126" fill="url(#SVGID_5_)" d="m248.884849,196.228046c82.002,-76.144 162.734,-19.083 213.406,37.312c-14.641,-105.671 -105.516,-187.307 -215.149,-187.307c-103.098,0 -189.58,72.191 -211.712,168.666c47.862,31.801 128.388,60.317 213.455,-18.671z"/>
 </g>
</svg>